<svg viewBox="0 0 47.5 47.5" xmlns="http://www.w3.org/2000/svg" xmlns:xlink="http://www.w3.org/1999/xlink"><clipPath id="a"><path d="m0 38h38v-38h-38z"/></clipPath><g clip-path="url(#a)" transform="matrix(1.25 0 0 -1.25 0 47.5)"><path d="m2 20 8 7 16-1 1-16-7-8s0 5.999-6 12c-6.001 6.001-12 6-12 6" fill="#a0041e"/><path d="m1.973 2s-.036 7.979 2.985 11 11.042 2.813 11.042 2.813-.001-7.813-3.001-10.813-11.026-3-11.026-3" fill="#ffac33"/><path d="m5.999 10a4 4 0 1 0 8 0 4 4 0 0 0 -8 0" fill="#ffcc4d"/><path d="m36.999 37s-10 0-22-10c-6-5-6-14-4-16s11-2 16 4c10 12 10 22 10 22" fill="#55acee"/><path d="m27.999 32a3.996 3.996 0 0 1 -3.641-2.36c.502.227 1.055.36 1.641.36a4 4 0 0 0 4-4c0-.586-.133-1.139-.359-1.64a3.995 3.995 0 0 1 -1.641 7.64"/><path d="m9 9s0 4 1 5 13.001 10.999 14 10-9.001-13-10.001-14-4.999-1-4.999-1" fill="#a0041e"/></g></svg>